<svg width="96" height="96" viewBox="0 0 96 96" fill="none" xmlns="http://www.w3.org/2000/svg">
  <rect width="96" height="96" rx="24" fill="#08101A"/>
  <g opacity="0.95">
    <circle cx="32" cy="36" r="11" fill="#4FC1FF"/>
    <circle cx="64" cy="36" r="11" fill="#FF8A46"/>
    <path d="M18 68C18 60.268 24.268 54 32 54H40V76H32C24.268 76 18 69.732 18 62V68Z" fill="#4FC1FF"/>
    <path d="M56 68C56 60.268 62.268 54 70 54H78V76H70C62.268 76 56 69.732 56 62V68Z" fill="#FF8A46"/>
    <path d="M37 68C37 60.268 43.268 54 51 54H55V76H51C43.268 76 37 69.732 37 62V68Z" fill="#D4F4FF"/>
  </g>
</svg>
